<svg width="53" height="53" viewBox="0 0 53 53" fill="none" xmlns="http://www.w3.org/2000/svg">
    <mask id="path-1-outside-1_14_19" maskUnits="userSpaceOnUse" x="0" y="0" width="53" height="53" fill="black">
        <rect fill="white" width="53" height="53"/>
        <path fill-rule="evenodd" clip-rule="evenodd" d="M42.4099 10.5901L26.5 4L10.5901 10.5901L4 26.5L4.11229 26.7711H7.79521V49H15.9277V35.9397C15.9277 32.0738 19.0617 28.9397 22.9277 28.9397H30.0723C33.9383 28.9397 37.0723 32.0738 37.0723 35.9397V49H45.2048V26.7711H48.8877L49 26.5L42.4099 10.5901Z"/>
    </mask>
    <path d="M26.5 4L28.0307 0.304482C27.0506 -0.101494 25.9494 -0.101494 24.9693 0.304482L26.5 4ZM42.4099 10.5901L46.1054 9.05936C45.6994 8.07925 44.9207 7.30055 43.9406 6.89458L42.4099 10.5901ZM10.5901 10.5901L9.05936 6.89458C8.07925 7.30056 7.30056 8.07925 6.89458 9.05936L10.5901 10.5901ZM4 26.5L0.304482 24.9693C-0.101494 25.9494 -0.101494 27.0506 0.304482 28.0307L4 26.5ZM4.11229 26.7711L0.416768 28.3018C1.03589 29.7965 2.49444 30.7711 4.11229 30.7711V26.7711ZM7.79521 26.7711H11.7952C11.7952 24.5619 10.0043 22.7711 7.79521 22.7711V26.7711ZM7.79521 49H3.79521C3.79521 51.2091 5.58607 53 7.79521 53V49ZM15.9277 49V53C18.1368 53 19.9277 51.2091 19.9277 49H15.9277ZM37.0723 49H33.0723C33.0723 51.2091 34.8631 53 37.0723 53V49ZM45.2048 49V53C47.414 53 49.2048 51.2091 49.2048 49H45.2048ZM45.2048 26.7711V22.7711C42.9957 22.7711 41.2048 24.5619 41.2048 26.7711H45.2048ZM48.8877 26.7711V30.7711C50.5056 30.7711 51.9641 29.7965 52.5832 28.3018L48.8877 26.7711ZM49 26.5L52.6955 28.0307C53.1015 27.0506 53.1015 25.9494 52.6955 24.9693L49 26.5ZM24.9693 7.69552L40.8792 14.2856L43.9406 6.89458L28.0307 0.304482L24.9693 7.69552ZM12.1208 14.2856L28.0307 7.69552L24.9693 0.304482L9.05936 6.89458L12.1208 14.2856ZM7.69552 28.0307L14.2856 12.1208L6.89458 9.05936L0.304482 24.9693L7.69552 28.0307ZM7.8078 25.2403L7.69552 24.9693L0.304482 28.0307L0.416768 28.3018L7.8078 25.2403ZM7.79521 22.7711H4.11229V30.7711H7.79521V22.7711ZM11.7952 49V26.7711H3.79521V49H11.7952ZM15.9277 45H7.79521V53H15.9277V45ZM11.9277 35.9397V49H19.9277V35.9397H11.9277ZM22.9277 24.9397C16.8526 24.9397 11.9277 29.8646 11.9277 35.9397H19.9277C19.9277 34.2829 21.2708 32.9397 22.9277 32.9397V24.9397ZM30.0723 24.9397H22.9277V32.9397H30.0723V24.9397ZM41.0723 35.9397C41.0723 29.8646 36.1474 24.9397 30.0723 24.9397V32.9397C31.7291 32.9397 33.0723 34.2829 33.0723 35.9397H41.0723ZM41.0723 49V35.9397H33.0723V49H41.0723ZM45.2048 45H37.0723V53H45.2048V45ZM41.2048 26.7711V49H49.2048V26.7711H41.2048ZM48.8877 22.7711H45.2048V30.7711H48.8877V22.7711ZM45.3045 24.9693L45.1922 25.2404L52.5832 28.3018L52.6955 28.0307L45.3045 24.9693ZM38.7144 12.1208L45.3045 28.0307L52.6955 24.9693L46.1054 9.05936L38.7144 12.1208Z" fill="white" mask="url(#path-1-outside-1_14_19)"/>
</svg>
